Coordinates
version=1
nRows=27
nColumns=12
inDegrees=yes

Units are S.I. units (second, meters, Newtons, ...)
Angles are in degrees

endheader
time	SC_y	SC_z	SC_x	AC_y	AC_z	AC_x	GH_y	GH_z	GH_yy	EL_x	PS_y
       0.0              -42.77         -2.949          71.25          52.42         -10.48         -17.28         -92.19          21.04         -177.6          81.48          35.65
   0.03951              -42.78         -2.948          71.25          52.42         -10.48         -17.27         -92.16          21.04         -177.5          81.47          35.66
   0.07903              -42.78         -2.947          71.25          52.42         -10.48         -17.27         -92.14          21.04         -177.5          81.47          35.68
    0.1185              -42.78         -2.946          71.25          52.41         -10.48         -17.26         -92.11          21.05         -177.5          81.46          35.69
    0.1581              -42.78         -2.945          71.25          52.41         -10.48         -17.26         -92.08          21.05         -177.4          81.45          35.71
    0.1976              -42.78         -2.944          71.25          52.41         -10.48         -17.25         -92.05          21.05         -177.4          81.44          35.73
    0.2371              -42.79         -2.943          71.25           52.4         -10.48         -17.24         -92.02          21.05         -177.4          81.43          35.75
    0.2766              -42.79         -2.942          71.25           52.4         -10.48         -17.24         -91.99          21.05         -177.3          81.42          35.77
    0.3161              -42.79          -2.94          71.26          52.39         -10.48         -17.23         -91.95          21.06         -177.3          81.41          35.79
    0.3556              -42.79         -2.939          71.26          52.39         -10.48         -17.22         -91.91          21.06         -177.2          81.39          35.82
    0.3951               -42.8         -2.937          71.26          52.39         -10.48         -17.21         -91.87          21.06         -177.2          81.38          35.84
    0.4347               -42.8         -2.936          71.26          52.38         -10.48          -17.2         -91.82          21.07         -177.1          81.37          35.87
    0.4742               -42.8         -2.934          71.26          52.37         -10.48         -17.19         -91.77          21.07         -177.1          81.35           35.9
    0.5137              -42.81         -2.932          71.26          52.37         -10.48         -17.18         -91.72          21.07         -177.0          81.34          35.93
    0.5532              -42.81          -2.93          71.26          52.36         -10.48         -17.17         -91.66          21.08         -176.9          81.32          35.96
    0.5927              -42.82         -2.928          71.26          52.36         -10.48         -17.15          -91.6          21.08         -176.9           81.3           36.0
    0.6322              -42.82         -2.926          71.26          52.35         -10.48         -17.14         -91.53          21.09         -176.8          81.28          36.04
    0.6717              -42.83         -2.923          71.27          52.34         -10.48         -17.12         -91.45          21.09         -176.7          81.25          36.09
    0.7113              -42.84          -2.92          71.27          52.33         -10.48         -17.11         -91.37           21.1         -176.6          81.23          36.14
    0.7508              -42.84         -2.917          71.27          52.32         -10.48         -17.09         -91.28           21.1         -176.5           81.2          36.19
    0.7903              -42.85         -2.914          71.27          52.31         -10.48         -17.07         -91.19          21.11         -176.4          81.17          36.25
    0.8298              -42.86          -2.91          71.27           52.3         -10.49         -17.04         -91.08          21.12         -176.2          81.14          36.31
    0.8693              -42.87         -2.906          71.28          52.28         -10.49         -17.02         -90.96          21.12         -176.1           81.1          36.38
    0.9088              -42.88         -2.901          71.28          52.27         -10.49         -16.99         -90.83          21.13         -175.9          81.06          36.46
    0.9483              -42.89         -2.896          71.28          52.25         -10.49         -16.96         -90.68          21.14         -175.8          81.02          36.55
    0.9879               -42.9          -2.89          71.28          52.24         -10.49         -16.93         -90.52          21.15         -175.6          80.97          36.65
     1.027              -42.91         -2.884          71.29          52.22         -10.49         -16.89         -90.34          21.17         -175.3          80.91          36.76
